<svg xmlns="http://www.w3.org/2000/svg" xmlns:xlink="http://www.w3.org/1999/xlink" width="69.343" height="86.213" viewBox="0 0 69.343 86.213">
  <defs>
    <clipPath id="clip-pl-logo">
      <rect width="69.343" height="86.213"/>
    </clipPath>
  </defs>
  <g id="pl-logo" clip-path="url(#clip-pl-logo)">
    <rect width="69.343" height="86.213" fill="#fff"/>
    <path id="Premier_League-Logo.wine" d="M60.785,39.447A24.413,24.413,0,0,1,57.3,41.852l.022,4.9A17.186,17.186,0,0,1,61,51.643c1.888-3.316,1.525-8.19-.21-12.2M59.252,55.472a9.247,9.247,0,0,0-2.022-3.9l-3.736.089s-5.036,4.222-8.108,4.322c0,0,1.692,3.071,2.549,4.676,1.688-.361,4.662-1.661,5.861-3.022a17.126,17.126,0,0,1,.643,5.43,11.346,11.346,0,0,0,4.815-7.591M54.438,46.63l-.007-4.878a16.882,16.882,0,0,1-4.615-2.5c-4.786.7-10.581,5.4-10.581,5.4s1.957,3.624,4.1,7.534c3.765.514,9.314-4.127,11.1-5.558M67.2,66.942l-3.079-3.326c-.879,8.99-5.392,16.624-13.682,21.948l-1.267-4.849c-7.037,4.959-19.114,8.175-29.488,2.451,1.289-6.411,2.433-12.908-.022-20.687C13.918,71.157,8.834,74.558,8.834,74.558,4.953,68.2,5.3,55.444,6.46,51.689L0,53.641c0-4.286,3.163-13.379,7.745-18.487l-4.034-.63h0A37.354,37.354,0,0,1,15.548,20.807l.007,0c-1.5,2.317-1.525,8.034,2.88,10.209-1.87-3.2-2.1-7.152-.142-9.2,1.954-2.065,5.24-1.357,7.338.244a6.17,6.17,0,0,0-5.2-4.183h0a38.42,38.42,0,0,1,17.277-4.063c1.162,0,2.32.05,3.453.149,1.808.708,4.463,3.195,5.7,4.743a9.349,9.349,0,0,0-.951-4.028c6.736,1.6,9.949,4.275,11.3,5.565.276,2.841,1.147,4.545,2.3,7.244-2.182-2.384-7.665-6.231-10.283-7.152a8.8,8.8,0,0,1-1.115,3.645c-5.214-3.67-7.774-4.594-7.774-4.594A22.3,22.3,0,0,0,28.928,24.03l1.743,1.449a12.668,12.668,0,0,0-5.69,3.925c.025.053,3.083.478,3.083.478s-.312,3.5,4.183,5.7c3.853,1.881,9.39-.453,14.6,1.587a41.459,41.459,0,0,0-5.8-5.586,14.056,14.056,0,0,0-2.32-.269,12.223,12.223,0,0,1-4.942-.507A19.217,19.217,0,0,1,30.9,29.294a11.694,11.694,0,0,1,5.926-2.944,20.314,20.314,0,0,1,5.686,2.685A5.18,5.18,0,0,1,45.929,27.5s-1.728,1.573-1.206,3.479a64.687,64.687,0,0,1,5.232,5.306C52.73,34.8,58.761,35.142,60,36.545a34.839,34.839,0,0,0-5.581-5.062,16.759,16.759,0,0,0-2.447-3.578,10.382,10.382,0,0,1,3.439,1.966,4.4,4.4,0,0,1,2.524-1.6,3.958,3.958,0,0,1,1.405,2.788,3.77,3.77,0,0,1-1.093.9l2.941,3.107.294-2.228c6.776,9.44,10.469,20.364,5.719,34.1M13.692,7.2a30.908,30.908,0,0,1,6.874,4.286c-.207-.985-.977-5.724-1.42-8.668,2.277,1.541,7.56,5.119,9.3,6.28C29.153,6.968,31.608.014,31.608.014s4.437,7.007,5.2,8.144c.926-.946,6.227-6.7,7.6-8.158.229,3.312.541,8.048.621,8.76a29.076,29.076,0,0,1,5.7-5.685,29.052,29.052,0,0,0-2.491,9.886,40.077,40.077,0,0,0-10.519-1.4A39.531,39.531,0,0,0,18.481,16.5,29.768,29.768,0,0,0,13.692,7.2" transform="translate(0 0)" fill="#3d195b"/>
  </g>
</svg>
